<?xml version="1.0" standalone="no"?>
<!DOCTYPE svg PUBLIC "-//W3C//DTD SVG 20010904//EN"
 "http://www.w3.org/TR/2001/REC-SVG-20010904/DTD/svg10.dtd">
<svg version="1.0" xmlns="http://www.w3.org/2000/svg"
 width="1833.000000pt" height="1153.000000pt" viewBox="0 0 1833.000000 1153.000000"
 preserveAspectRatio="xMidYMid meet">
<metadata>
Created by potrace 1.16, written by Peter Selinger 2001-2019
</metadata>
<g transform="translate(0.000000,1153.000000) scale(0.100000,-0.100000)"
fill="#000000" stroke="none">
<path d="M3597 10965 c-215 -41 -388 -135 -537 -291 -120 -126 -176 -221 -229
-388 -33 -103 -36 -141 -12 -141 10 0 23 30 41 90 82 287 255 494 513 615 128
60 236 83 392 83 104 1 148 -4 219 -23 73 -19 90 -20 97 -9 13 21 -2 30 -88
50 -106 27 -295 33 -396 14z"/>
<path d="M3591 10544 c-182 -62 -310 -204 -357 -397 -13 -51 -14 -71 -5 -80
17 -17 27 0 46 73 40 157 140 280 282 348 71 33 87 37 178 40 71 3 118 -1 164
-13 45 -11 67 -13 74 -6 17 17 -1 28 -68 45 -93 25 -225 21 -314 -10z"/>
<path d="M6899 10328 c-33 -35 -75 -135 -117 -278 l-38 -130 -26 30 c-14 17
-36 30 -48 30 -27 0 -80 -27 -80 -41 0 -7 -10 -5 -25 5 -35 23 -94 21 -122 -6
l-23 -22 -39 22 c-69 39 -118 27 -151 -37 -10 -21 -45 -74 -76 -117 -68 -96
-105 -166 -133 -259 -41 -133 -69 -383 -53 -467 l9 -48 -160 -312 c-159 -311
-475 -957 -557 -1138 -24 -52 -44 -96 -45 -98 -1 -1 -24 60 -50 135 -102 295
-236 615 -359 862 -31 60 -60 113 -67 116 -18 12 -35 -15 -73 -116 -180 -488
-230 -1052 -145 -1654 17 -118 63 -364 85 -455 4 -14 -35 43 -86 125 -289 466
-630 925 -990 1329 -159 179 -489 516 -506 516 -24 0 -25 -19 -9 -142 94 -720
395 -1446 849 -2047 55 -74 108 -143 116 -154 13 -18 12 -21 -10 -36 -14 -9
-80 -57 -146 -107 l-122 -92 -78 18 c-163 38 -298 52 -472 48 -166 -3 -167 -3
-236 -37 -79 -39 -180 -133 -245 -229 -53 -79 -135 -242 -171 -340 -15 -41
-33 -78 -41 -82 -14 -8 -417 -150 -425 -150 -2 0 -4 8 -4 18 0 11 -119 104
-341 267 l-341 250 -45 89 c-74 147 -153 266 -230 346 -91 97 -157 134 -235
135 -65 0 -102 -21 -131 -76 -26 -49 -18 -218 18 -354 77 -293 248 -711 435
-1060 90 -167 91 -171 97 -255 5 -75 18 -119 106 -363 94 -262 101 -278 122
-273 12 3 183 75 380 161 197 85 360 153 362 152 1 -2 -6 -80 -16 -173 -23
-199 -47 -488 -61 -738 -11 -194 -14 -755 -4 -780 5 -14 29 -16 156 -16 l150
0 -6 -93 c-3 -50 -9 -186 -12 -300 -6 -174 -9 -207 -21 -203 -8 3 -171 -93
-376 -223 l-362 -228 -85 -6 c-388 -30 -640 -155 -640 -318 0 -78 52 -124 185
-166 l60 -18 -333 -3 c-310 -2 -333 -3 -330 -20 3 -16 201 -17 3733 -20 2052
-2 4973 0 6493 4 2543 6 2763 8 2760 23 -3 15 -151 16 -1831 15 -1346 -1
-1827 2 -1827 10 0 10 184 769 196 810 6 18 24 18 489 14 l482 -4 189 794
c104 436 192 798 195 803 3 6 57 -26 119 -71 149 -107 281 -185 373 -220 78
-31 209 -56 227 -45 6 4 68 6 137 6 157 -2 202 11 278 81 151 138 179 421 61
623 -29 49 -73 90 -177 164 -47 34 -91 76 -115 110 -130 187 -438 514 -701
747 -87 77 -191 173 -233 214 -158 159 -511 429 -1148 878 l-172 122 -226 0
c-177 0 -225 3 -222 13 3 6 20 69 38 140 28 108 36 128 54 131 115 21 149 30
202 56 77 38 146 110 187 198 l32 67 2 195 3 195 49 6 c158 21 247 194 177
344 -43 93 -120 139 -222 133 -61 -3 -64 -2 -75 24 -10 25 -8 32 24 67 41 45
53 90 49 182 l-2 36 -52 -18 c-75 -26 -100 -25 -96 3 2 19 14 25 66 38 34 8
62 20 62 26 0 28 -65 136 -104 172 -68 63 -138 84 -291 89 -105 4 -149 1 -231
-16 -124 -25 -233 -61 -339 -111 -44 -21 -113 -45 -152 -53 -127 -28 -205 -79
-265 -172 -60 -92 -83 -178 -82 -315 0 -276 126 -554 313 -690 34 -25 61 -47
61 -50 0 -3 -22 -42 -49 -85 -47 -76 -223 -285 -240 -285 -11 0 -148 117 -246
211 l-80 76 -315 133 c-173 73 -362 151 -419 172 -120 46 -361 109 -510 133
-92 15 -105 16 -118 2 -14 -13 -23 -13 -82 8 -36 12 -122 50 -191 85 l-126 62
-51 212 c-47 190 -180 670 -203 731 -14 37 -34 30 -64 -22 -15 -27 -25 -41
-23 -32 174 559 278 872 340 1024 199 484 397 1332 333 1429 -20 32 -48 33
-77 4z m47 -127 c-27 -269 -177 -845 -313 -1201 -140 -367 -267 -757 -537
-1652 l-26 -86 -40 19 c-53 26 -154 49 -216 49 -80 0 -145 -12 -151 -27 -10
-26 10 -32 74 -23 82 11 191 -3 263 -36 32 -14 63 -23 69 -19 6 3 143 -63 304
-148 424 -225 504 -265 564 -284 32 -10 52 -22 49 -29 -2 -6 -63 -91 -136
-188 -109 -147 -265 -372 -305 -440 -9 -16 -21 -16 -205 0 l-195 16 -115 61
c-384 202 -713 424 -845 569 -60 67 -105 147 -105 188 0 102 195 536 641 1430
l297 595 -5 105 c-6 121 16 301 48 401 31 96 83 196 143 275 29 38 56 79 60
91 4 11 15 28 25 37 21 20 56 10 108 -30 41 -31 49 -30 62 6 5 17 18 33 27 37
24 9 67 -18 74 -47 8 -35 41 -33 51 3 16 59 57 76 82 35 8 -13 21 -35 30 -50
24 -39 43 -26 62 40 37 134 107 340 126 371 19 31 22 33 31 17 6 -11 7 -45 4
-85z m-2012 -2131 c82 -193 154 -384 211 -560 l38 -115 -68 -169 c-83 -206
-91 -264 -52 -349 30 -66 146 -192 253 -273 41 -31 74 -60 74 -63 0 -3 9 -58
20 -121 28 -162 32 -149 -47 -131 -49 11 -126 15 -273 15 -173 0 -221 -3 -305
-22 -55 -12 -103 -18 -107 -14 -24 26 -117 540 -138 762 -13 147 -13 527 0
661 27 268 101 584 186 794 6 16 20 -6 71 -110 35 -72 96 -209 137 -305z
m-1422 -315 c284 -321 534 -646 776 -1007 160 -240 315 -495 308 -507 -3 -5
-18 -12 -33 -16 -16 -3 -74 -25 -131 -47 -78 -30 -106 -37 -116 -29 -8 6 -51
61 -97 121 -46 61 -89 110 -97 110 -33 0 -17 -36 67 -146 l89 -118 -121 -66
-121 -67 -41 51 c-322 396 -590 886 -754 1374 -78 230 -162 593 -176 757 l-6
70 152 -155 c83 -85 219 -231 301 -325z m2918 -127 c67 -237 160 -601 154
-606 -1 -2 -107 51 -234 118 -180 95 -230 126 -226 139 3 9 21 72 42 141 36
123 173 430 192 430 4 0 37 -100 72 -222z m3410 -303 c143 -24 165 -31 179
-61 10 -23 9 -28 -9 -41 -35 -25 -69 -66 -90 -109 -17 -38 -23 -42 -66 -49
-40 -6 -49 -4 -57 12 -31 56 -133 113 -202 113 -84 0 -185 -67 -220 -147 l-17
-40 -137 -37 c-75 -20 -144 -39 -153 -42 -16 -5 -18 3 -18 63 0 79 5 89 45 99
63 15 145 66 225 139 80 73 117 99 170 116 35 12 237 3 350 -16z m388 -131
c36 -18 59 -38 77 -67 l25 -42 -25 -7 c-14 -3 -62 -9 -108 -13 l-84 -7 -14 76
c-13 67 -13 76 1 79 39 11 80 5 128 -19z m-169 -114 c14 -106 14 -240 1 -240
-18 0 -83 65 -96 97 -31 73 -13 165 44 226 33 35 38 27 51 -83z m-352 24 c48
-38 83 -106 83 -159 0 -63 -43 -140 -94 -170 -57 -33 -141 -35 -197 -3 -109
61 -131 208 -46 305 44 50 80 64 154 60 52 -2 69 -8 100 -33z m178 -88 c-18
-13 -17 -18 18 -159 21 -81 37 -149 37 -152 0 -4 -20 -15 -45 -26 -43 -19 -57
-41 -35 -54 11 -7 105 32 120 50 8 10 5 35 -10 93 -22 89 -25 117 -9 89 6 -10
34 -31 64 -48 l53 -30 8 -117 c17 -272 -43 -424 -197 -501 -163 -81 -330 -63
-488 53 -45 33 -47 34 -59 15 -11 -17 -7 -23 30 -50 61 -45 173 -97 225 -105
32 -5 43 -10 39 -20 -3 -8 -20 -70 -38 -139 l-33 -125 -37 0 c-34 0 -38 2 -44
35 -7 40 8 36 -267 60 -141 12 -187 20 -220 36 -45 23 -168 100 -204 129 l-23
18 62 68 c117 132 177 214 222 305 25 50 46 97 46 105 0 8 7 14 15 14 26 0 75
29 75 44 0 21 -23 25 -51 10 -55 -30 -106 -3 -135 71 -29 78 0 159 55 153 21
-2 26 1 25 19 0 17 8 25 30 32 58 19 215 61 225 61 5 0 15 -24 21 -54 36 -176
239 -252 382 -143 62 47 91 111 90 197 0 67 1 69 26 73 15 2 31 5 36 6 6 0 1
-5 -9 -13z m450 -23 c-16 -91 -82 -157 -167 -169 l-45 -6 -6 53 c-4 30 -7 73
-7 96 l0 42 58 6 c31 3 64 8 72 9 8 2 35 4 59 5 l43 1 -7 -37z m-3045 -239
c234 -53 341 -90 717 -249 181 -77 230 -102 222 -112 -14 -16 -11 -19 166
-211 128 -140 162 -166 172 -136 2 6 -64 84 -146 174 -83 90 -149 166 -147
167 2 2 29 -8 62 -23 41 -18 86 -53 153 -116 108 -104 256 -223 354 -287 37
-24 66 -45 65 -47 -4 -3 -2311 198 -2317 202 -10 8 145 232 353 512 l121 164
55 -6 c30 -4 107 -18 170 -32z m-1710 -334 c63 -40 117 -74 118 -75 2 -2 -1
-19 -6 -37 -6 -18 -16 -52 -22 -75 l-11 -43 -47 24 c-26 13 -66 29 -90 35 -23
7 -42 17 -42 24 -1 7 -9 61 -19 120 -12 72 -14 106 -7 104 6 -3 63 -37 126
-77z m425 -246 c175 -94 163 -74 164 -288 l1 -129 -137 134 c-117 114 -261
234 -318 266 -13 8 -12 18 6 86 l21 77 57 -32 c31 -18 123 -69 206 -114z
m-661 70 c249 -42 398 -130 674 -398 133 -130 308 -324 478 -531 224 -274 634
-837 869 -1192 l79 -120 116 -7 c255 -14 1411 -152 1436 -170 9 -7 11 -16 5
-25 -8 -13 -69 -8 -433 37 -608 75 -951 112 -1045 112 l-42 0 95 -147 c52 -82
103 -155 112 -164 9 -9 292 -163 627 -343 336 -180 614 -332 619 -336 10 -10
-50 -162 -166 -420 -89 -196 -160 -335 -221 -427 l-41 -63 -930 0 -930 0 -34
38 c-53 56 -180 240 -214 307 -43 84 -104 275 -132 413 l-24 118 -667 1075
-666 1074 -584 315 c-322 173 -584 317 -584 320 0 8 139 114 234 177 460 307
932 430 1369 357z m-4408 -243 c99 -57 216 -209 320 -415 l55 -109 338 -248
339 -249 -8 -38 c-59 -265 -79 -366 -73 -375 4 -7 82 -109 173 -227 147 -189
167 -219 163 -246 -4 -29 -14 -34 -279 -148 -151 -65 -276 -117 -278 -115 -5
6 -858 2161 -864 2182 -7 28 55 21 114 -12z m272 -1084 c237 -600 432 -1096
432 -1102 0 -12 -127 -68 -142 -63 -6 2 -53 119 -104 259 -86 236 -93 259 -94
330 l0 77 -96 178 c-204 383 -395 859 -451 1127 -28 136 -20 287 15 287 4 0
202 -492 440 -1093z m2142 843 c136 -14 312 -50 333 -68 9 -8 283 -160 608
-336 l591 -321 179 -288 179 -289 131 -326 c175 -435 219 -551 267 -714 76
-252 154 -400 304 -579 110 -132 133 -182 173 -388 36 -178 63 -281 95 -357
l19 -44 -343 0 -344 0 -70 75 c-108 115 -195 310 -234 520 l-13 69 -729 638
c-514 450 -734 637 -749 635 -28 -3 -136 126 -189 228 -23 44 -54 118 -68 165
-17 53 -32 85 -41 85 -22 0 -22 -31 1 -108 43 -140 131 -285 237 -390 l49 -47
-78 -768 c-42 -422 -78 -770 -78 -773 0 -8 -1364 -34 -1384 -26 -14 6 -16 31
-16 204 0 762 99 1676 241 2231 146 576 343 902 581 966 62 17 214 20 348 6z
m6915 -181 c657 -462 1095 -805 1095 -859 0 -22 -104 -143 -202 -236 l-75 -72
-79 15 c-117 22 -341 22 -436 0 -163 -38 -249 -86 -400 -220 l-97 -87 -41 35
c-23 19 -45 35 -50 35 -4 0 -45 -66 -91 -147 l-83 -148 -152 910 c-84 501
-153 916 -153 922 -1 10 59 11 277 6 l277 -6 210 -148z m-2420 -222 c83 -83
40 -257 -63 -257 -27 0 -42 8 -68 35 -63 67 -66 162 -7 217 53 49 93 50 138 5z
m-5400 -314 c-36 -95 -107 -394 -150 -633 -14 -80 -29 -162 -33 -184 l-7 -39
-154 198 -153 197 35 165 c19 90 37 166 39 167 7 7 404 145 417 146 8 0 11 -6
6 -17z m9110 -483 c164 -143 449 -430 568 -571 53 -64 97 -120 97 -124 0 -4
-12 1 -27 11 -416 275 -652 393 -1042 520 -9 3 27 46 101 122 63 64 123 129
132 145 22 32 5 42 171 -103z m-445 -203 c74 -19 172 -50 217 -67 l82 -31 -13
-42 c-8 -25 -31 -60 -58 -87 -51 -50 -74 -111 -64 -165 5 -27 -1 -44 -41 -104
l-48 -72 -18 23 c-10 13 -45 55 -77 95 l-59 71 -78 -33 c-85 -37 -154 -51
-307 -61 l-99 -7 -116 -104 c-104 -92 -120 -103 -154 -103 l-38 0 15 28 c8 15
35 62 60 105 47 79 54 101 36 112 -6 4 -86 -41 -179 -100 -139 -88 -173 -105
-195 -99 l-26 6 45 57 c24 31 92 101 150 155 96 89 105 100 91 114 -13 14 -26
5 -122 -84 -94 -87 -152 -150 -199 -216 -11 -16 -17 -18 -34 -9 -20 11 -20 14
-6 48 29 69 110 169 254 314 150 150 212 198 317 242 109 46 183 57 364 53
151 -3 177 -7 300 -39z m573 -228 c186 -94 506 -297 732 -466 135 -101 172
-149 201 -262 23 -91 16 -245 -16 -326 -32 -82 -108 -158 -180 -179 -197 -58
-497 56 -705 268 -70 72 -181 199 -334 383 l-43 52 65 99 c63 97 67 101 119
116 53 15 102 55 127 104 27 52 7 168 -35 203 -16 13 -19 39 -4 39 6 0 39 -14
73 -31z m-593 -295 c88 -115 148 -189 330 -405 274 -324 370 -414 537 -501 59
-31 69 -39 44 -34 -55 10 -233 99 -342 170 -132 87 -999 741 -1014 766 -3 4
30 11 73 15 96 8 184 28 242 54 25 11 50 20 55 20 6 1 39 -38 75 -85z m-6595
-539 l680 -595 32 -124 c52 -208 132 -378 222 -475 23 -24 41 -46 41 -48 0 -1
-344 -3 -765 -3 l-765 0 0 -235 0 -235 266 0 c248 0 265 -1 260 -17 -10 -36
-206 -813 -206 -818 0 -3 -189 -5 -419 -5 l-419 0 -6 118 c-3 64 -11 268 -17
452 l-10 335 40 315 c23 173 44 327 47 343 5 26 8 27 69 27 38 0 67 5 71 12 4
6 42 356 85 777 43 421 78 767 78 769 5 22 143 -92 716 -593z m6838 564 c12
-11 37 -28 54 -38 l33 -16 -55 -83 c-31 -45 -57 -82 -59 -82 -2 0 -23 26 -48
58 l-46 57 45 63 c25 34 47 62 49 62 3 0 15 -9 27 -21z m-570 -181 c99 -76
189 -145 200 -153 23 -16 34 28 -274 -1085 -55 -195 -99 -363 -99 -372 0 -17
-55 -18 -1015 -18 -670 0 -1015 3 -1015 10 0 6 4 10 8 10 14 0 100 152 177
313 60 125 118 257 235 535 l10 22 50 -25 c27 -14 65 -39 85 -56 27 -24 41
-30 60 -25 29 7 99 98 213 276 l81 125 48 -3 c26 -1 323 -38 660 -80 l611 -78
5 35 c21 138 59 473 54 477 -3 4 -108 19 -234 35 -125 16 -234 30 -242 31 -9
2 27 40 83 90 54 49 103 85 108 82 6 -4 92 -69 191 -146z m-1903 -358 c305
-39 558 -71 563 -73 9 -3 -157 -263 -206 -322 l-38 -45 -45 31 c-24 16 -95 55
-157 86 -133 66 -703 370 -732 391 -18 12 -17 13 20 8 22 -4 290 -38 595 -76z
m-5430 -997 c1 -14 -83 -668 -86 -671 -4 -6 -567 -172 -582 -172 -9 0 -255
157 -290 185 -2 2 0 64 4 139 l7 136 52 0 c71 0 208 -25 302 -55 94 -30 103
-30 103 -6 0 33 -206 91 -382 106 -78 7 -78 7 -78 36 l0 29 68 0 c75 -1 124
-10 327 -65 116 -32 157 -38 240 -39 92 -1 100 1 100 18 0 17 -10 19 -90 22
-49 1 -124 11 -165 22 -248 67 -323 84 -392 89 l-78 6 0 99 c0 70 4 100 13
103 6 2 206 8 442 13 237 5 442 9 458 10 15 1 27 -1 27 -5z m-388 -809 c161
47 296 86 299 86 4 0 9 -127 13 -282 4 -156 9 -303 13 -327 l6 -43 -1184 7
c-651 4 -1186 9 -1187 10 -11 10 40 71 83 100 97 67 266 113 495 136 l115 11
353 223 354 224 173 -116 174 -115 293 86z m6682 49 c-4 -10 -53 -199 -108
-420 l-101 -402 -2459 -1 c-1962 0 -2457 3 -2454 13 3 6 50 195 104 419 l99
408 2464 0 c2342 0 2463 -1 2455 -17z m-6866 -659 l512 -6 0 -76 0 -75 -272 6
c-261 6 -276 8 -350 33 l-76 27 -239 -28 c-516 -59 -1118 -43 -1329 36 -53 20
-114 67 -114 88 0 12 533 10 1868 -5z"/>
<path d="M6670 9733 c-1 -110 -46 -262 -70 -237 -5 5 -10 34 -12 64 -4 71 -27
75 -48 8 -33 -103 -81 -104 -90 -2 -4 51 -8 59 -25 59 -14 0 -21 -8 -23 -25
-5 -39 -23 -90 -32 -90 -4 0 -15 18 -24 40 -17 42 -27 48 -44 27 -14 -17 19
-91 48 -107 17 -9 26 -8 42 2 19 13 24 12 40 -4 23 -23 75 -23 100 -1 17 15
19 15 36 0 28 -25 57 -21 86 13 35 42 47 88 53 208 5 99 5 102 -16 102 -19 0
-21 -6 -21 -57z"/>
<path d="M5878 7915 c-57 -32 -73 -103 -37 -169 26 -49 19 -76 -27 -101 -45
-24 -66 -55 -62 -91 4 -35 40 -61 57 -40 9 11 8 17 -4 29 -21 22 -12 37 42 72
65 41 72 69 38 141 -32 67 -26 92 30 126 58 34 22 65 -37 33z"/>
<path d="M4824 7835 c-3 -8 22 -144 57 -302 34 -158 69 -324 78 -368 14 -69
20 -80 39 -83 13 -2 22 2 22 10 0 23 -150 712 -160 736 -11 25 -28 29 -36 7z"/>
<path d="M3570 7271 c-19 -13 -16 -17 128 -223 64 -92 159 -228 209 -302 106
-153 115 -163 133 -142 10 13 -25 68 -201 322 -243 351 -248 358 -269 345z"/>
<path d="M5790 4557 c0 -15 167 -386 182 -404 13 -17 27 -16 34 0 3 8 -37 104
-87 215 -71 156 -97 202 -111 202 -10 0 -18 -6 -18 -13z"/>
<path d="M6390 4029 c0 -12 23 -149 50 -305 28 -156 50 -286 50 -289 0 -3 8
-5 18 -5 11 0 37 32 72 88 109 176 141 224 145 220 3 -2 30 -146 60 -319 31
-173 61 -318 66 -324 18 -18 36 19 95 193 57 169 71 189 73 106 3 -120 63
-351 126 -480 102 -211 305 -358 513 -371 124 -9 260 33 224 69 -7 7 -24 6
-59 -6 -169 -58 -359 -1 -513 153 -85 85 -141 183 -183 316 -29 94 -64 292
-73 422 -13 173 -35 157 -115 -86 -35 -105 -66 -187 -70 -183 -3 4 -30 140
-58 302 -47 267 -61 317 -82 305 -3 -3 -50 -75 -104 -160 -53 -86 -99 -154
-101 -152 -4 3 -94 505 -94 521 0 3 -9 6 -20 6 -14 0 -20 -7 -20 -21z"/>
<path d="M3265 4343 c-13 -35 -18 -328 -6 -438 14 -128 42 -274 72 -369 15
-52 24 -66 37 -64 22 5 20 21 -11 139 -44 165 -59 296 -58 494 1 99 3 196 4
215 2 38 -25 55 -38 23z"/>
<path d="M3904 4196 c-12 -31 180 -171 339 -246 104 -50 272 -104 289 -94 28
17 -5 39 -112 74 -64 21 -147 53 -186 73 -85 43 -240 145 -273 181 -27 29 -49
33 -57 12z"/>
<path d="M9825 5668 c-113 -9 -137 -17 -117 -40 9 -11 39 -11 164 -1 84 6 165
12 181 12 20 1 27 6 27 21 0 18 -6 20 -72 19 -40 -1 -122 -6 -183 -11z"/>
<path d="M10450 4932 c0 -23 206 -246 231 -250 41 -7 16 33 -93 149 -108 116
-138 138 -138 101z"/>
<path d="M11795 3640 c-8 -12 205 -330 221 -330 34 0 19 34 -81 181 -99 148
-124 174 -140 149z"/>
<path d="M3729 10148 c-25 -8 -49 -44 -49 -72 0 -7 9 -25 21 -40 40 -50 129
-23 129 40 0 55 -48 90 -101 72z"/>
<path d="M12374 9836 l-34 -34 0 -395 c0 -384 1 -395 21 -421 l20 -26 590 0
590 0 24 25 25 24 0 401 0 402 -29 29 -29 29 -572 0 -572 0 -34 -34z m1136
-40 c-8 -8 -125 -112 -260 -231 -221 -195 -248 -215 -277 -213 -26 2 -78 44
-277 223 -135 121 -245 223 -245 228 -1 4 241 7 536 7 466 0 535 -2 523 -14z
m-846 -276 c130 -118 247 -220 259 -227 32 -18 78 -16 112 6 17 10 138 114
270 230 l240 212 3 -348 c1 -191 0 -354 -3 -361 -3 -10 -122 -12 -572 -10
l-568 3 -3 363 c-2 304 0 362 11 355 8 -4 121 -105 251 -223z"/>
<path d="M13801 9546 c-6 -7 -9 -21 -5 -30 5 -14 36 -16 276 -16 l269 0 -3 28
-3 27 -261 3 c-213 2 -263 0 -273 -12z"/>
<path d="M13744 9275 c-4 -8 -1 -22 6 -30 19 -23 728 -22 736 0 4 8 1 22 -6
30 -19 23 -728 22 -736 0z"/>
<path d="M13644 9135 c-15 -38 0 -42 171 -50 172 -7 190 -4 183 31 -4 22 -70
31 -246 33 -83 1 -104 -2 -108 -14z"/>
<path d="M13583 8463 c-23 -22 -23 -26 -23 -278 0 -158 4 -264 10 -276 10 -18
25 -19 400 -19 375 0 390 1 400 19 6 12 10 119 10 279 0 239 -1 260 -19 276
-16 15 -58 17 -387 19 -368 2 -369 2 -391 -20z m695 -41 c-8 -21 -291 -262
-307 -262 -17 0 -292 239 -299 260 -2 6 107 10 303 10 169 0 305 -4 303 -8z
m-488 -201 c74 -67 145 -124 158 -127 42 -11 69 6 216 136 80 71 149 130 151
130 3 0 5 -92 5 -205 l0 -205 -350 0 -350 0 0 212 c0 200 1 210 18 196 9 -9
78 -70 152 -137z"/>
<path d="M11803 7823 c-22 -22 -23 -27 -23 -236 0 -168 3 -217 14 -233 12 -15
30 -20 98 -24 l83 -5 5 -162 c5 -147 7 -164 26 -183 20 -20 28 -21 588 -20
362 0 574 3 586 10 10 5 22 19 25 31 12 35 7 426 -5 449 -18 34 -45 40 -185
40 l-136 0 2 161 c0 127 -2 165 -13 176 -12 11 -102 14 -529 16 l-514 2 -22
-22z m1025 -185 l3 -148 -397 0 -396 0 -29 -29 c-16 -16 -29 -39 -29 -51 0
-20 -4 -21 -67 -18 l-68 3 -3 185 c-1 101 0 190 2 197 4 11 102 13 493 11
l488 -3 3 -147z m316 -224 c13 -13 16 -45 16 -194 0 -149 -3 -181 -16 -194
-14 -14 -76 -16 -540 -16 -343 0 -532 4 -545 10 -18 10 -19 23 -19 200 0 169
2 190 18 199 11 7 205 11 544 11 466 0 528 -2 542 -16z"/>
<path d="M12375 7300 c-49 -19 -66 -78 -36 -126 36 -58 110 -52 137 11 12 31
12 39 0 70 -9 21 -26 39 -41 45 -30 12 -33 12 -60 0z"/>
<path d="M12574 7300 c-52 -21 -69 -88 -34 -133 51 -64 139 -30 140 55 0 28
-7 42 -31 62 -33 28 -42 30 -75 16z"/>
<path d="M12784 7300 c-52 -21 -69 -88 -34 -133 26 -33 63 -41 99 -23 32 17
41 34 41 76 0 42 -9 59 -41 75 -32 17 -36 17 -65 5z"/>
<path d="M13884 3915 c-4 -9 -4 -32 -1 -51 5 -31 3 -36 -19 -44 -14 -6 -36
-10 -50 -10 -15 0 -24 -6 -24 -15 0 -8 -74 -64 -165 -125 l-165 -110 -65 0
c-85 0 -119 -15 -182 -82 -63 -67 -80 -117 -60 -176 13 -36 12 -43 -8 -83 -52
-103 -58 -262 -16 -386 11 -34 107 -243 212 -465 l192 -403 1 -631 1 -632 -47
-93 c-27 -52 -48 -100 -48 -106 0 -7 31 -13 83 -17 161 -10 2190 -36 2201 -27
6 5 41 12 77 15 86 9 166 46 175 80 14 56 -21 82 -133 97 -45 7 -86 15 -91 18
-9 5 10 519 21 571 2 8 6 -43 10 -115 12 -207 16 -235 38 -235 24 0 24 41 4
335 -8 116 -15 228 -15 250 l0 39 53 -52 54 -53 27 -135 c35 -175 93 -385 111
-403 15 -15 65 -8 65 10 0 5 -29 112 -65 236 -36 125 -64 228 -62 229 1 2 45
-31 97 -72 103 -82 355 -254 371 -254 28 0 177 285 228 437 53 161 66 242 65
413 -1 135 -4 167 -28 254 -81 300 -218 422 -377 337 l-34 -18 2 252 c1 273 3
285 59 335 l27 25 -6 -25 c-66 -255 9 -433 226 -540 281 -138 564 -74 827 189
134 135 331 405 314 432 -8 14 -140 76 -274 129 -230 91 -472 158 -770 212
-155 29 -196 32 -360 33 -178 0 -187 -1 -235 -25 -100 -50 -121 -134 -64 -249
21 -41 45 -73 72 -92 41 -30 122 -59 163 -59 l23 0 -27 -51 c-26 -51 -26 -52
-27 -293 -1 -257 -10 -330 -48 -364 -18 -15 -20 -15 -14 -1 18 50 29 147 26
230 -5 112 -33 180 -105 254 -104 108 -230 113 -360 15 l-51 -39 -5 90 c-6
107 -41 185 -101 234 -37 28 -44 30 -130 30 -87 0 -96 -2 -179 -42 -104 -50
-182 -101 -276 -183 l-70 -60 -11 74 c-28 192 -131 367 -324 553 -203 196
-414 308 -615 329 l-60 7 -8 41 c-10 43 -39 61 -50 31z m232 -156 c362 -112
721 -484 770 -800 24 -152 43 -219 89 -316 61 -130 139 -239 354 -496 202
-244 266 -331 323 -447 54 -111 68 -178 68 -326 0 -135 -16 -521 -26 -612 l-5
-52 -26 20 c-14 11 -29 20 -34 20 -19 0 -53 -86 -53 -137 -1 -41 4 -56 23 -77
l24 -26 -184 0 c-101 0 -309 3 -461 7 l-277 6 -3 41 c-4 56 -31 57 -38 2 -7
-56 -28 -58 -32 -4 -4 58 -31 60 -38 3 -5 -37 -7 -40 -35 -40 l-30 0 3 55 c9
174 90 254 209 205 31 -13 39 -13 50 -2 11 11 7 31 -27 120 -94 252 -145 463
-138 579 4 75 21 107 79 146 30 21 43 23 110 20 63 -4 89 -11 161 -46 83 -40
224 -137 262 -180 24 -28 56 -29 56 -3 0 22 -88 105 -169 160 -174 118 -332
157 -430 106 -29 -14 -32 -14 -50 4 -27 27 -142 90 -225 122 -54 21 -72 33
-76 51 -7 30 -36 35 -45 9 -5 -15 -12 -20 -28 -16 -12 3 -40 9 -62 13 l-40 8
3 80 c3 59 0 83 -10 92 -31 26 -40 -2 -45 -152 -6 -156 -12 -168 -56 -129 -18
17 -19 17 -33 -2 -13 -17 -11 -22 13 -47 15 -15 35 -28 45 -28 12 0 18 -8 18
-22 1 -54 -42 -1085 -46 -1104 -4 -20 -11 -22 -116 -26 -62 -2 -114 -3 -116
-2 -2 1 10 28 26 60 l28 59 -22 575 c-12 316 -23 616 -24 665 -4 112 -7 125
-31 125 -25 0 -25 11 2 -750 l22 -615 -32 -58 c-20 -35 -39 -57 -50 -57 -16 0
-18 42 -20 723 -1 429 -6 726 -12 731 -28 29 -30 -24 -29 -605 0 -326 -3 -651
-6 -721 l-7 -128 -78 0 -79 0 20 32 c11 18 29 60 39 93 17 57 18 96 13 694
l-5 634 -174 366 c-242 507 -253 536 -253 658 0 59 34 193 50 193 9 0 113
-127 122 -148 4 -9 7 -34 7 -55 1 -40 36 -87 65 -87 28 0 76 53 80 88 2 28 11
38 52 62 67 38 148 112 168 154 46 97 -5 204 -136 284 -21 13 -38 25 -38 27 0
1 68 47 151 101 121 79 159 99 188 99 25 0 36 4 36 15 0 35 122 40 221 9z
m2484 -344 c259 -40 475 -90 687 -161 131 -44 388 -148 407 -164 15 -15 -138
-223 -254 -344 -127 -133 -255 -219 -375 -251 -76 -21 -221 -21 -300 0 -254
67 -380 240 -331 455 24 103 44 142 81 152 312 88 597 82 908 -19 110 -35 137
-37 137 -8 0 19 -62 47 -179 80 -166 47 -256 59 -436 59 -184 1 -312 -18 -478
-70 -98 -32 -207 -31 -272 1 -106 53 -149 205 -72 255 65 41 266 48 477 15z
m-1044 -314 c34 -15 47 -30 70 -76 24 -49 28 -73 32 -164 l4 -107 -50 -60
c-102 -123 -169 -166 -329 -212 -70 -20 -99 -33 -101 -45 -2 -9 4 -20 14 -24
27 -10 152 25 243 68 83 40 120 72 233 197 88 98 253 155 328 114 97 -54 118
-262 44 -430 -22 -50 -26 -54 -51 -48 -160 36 -232 21 -304 -62 l-34 -39 -152
-6 -153 -6 -92 112 c-120 147 -221 303 -258 399 -17 42 -30 84 -30 92 0 20
118 127 203 184 89 61 146 90 217 113 71 23 115 23 166 0z m594 -395 c26 -52
30 -70 30 -145 0 -93 -18 -185 -51 -262 -23 -53 -26 -55 -51 -36 -16 12 -15
17 7 63 74 151 73 349 -1 460 l-26 39 31 -30 c17 -16 45 -56 61 -89z m0 -486
c31 -43 97 -191 133 -295 29 -85 31 -102 38 -300 7 -228 19 -286 81 -409 27
-53 28 -60 14 -74 -22 -22 -42 -2 -77 76 -52 115 -61 164 -69 387 -9 229 -13
252 -85 420 -21 50 -52 114 -68 143 -24 43 -27 55 -17 67 18 21 26 19 50 -15z
m-1882 -421 c103 -26 186 -58 265 -103 96 -55 91 -47 63 -101 -52 -97 -29
-280 74 -586 27 -84 50 -153 50 -155 0 -2 -20 -4 -45 -4 -120 0 -183 -80 -200
-257 l-7 -68 -177 3 c-97 2 -178 6 -181 8 -4 5 36 1038 47 1197 4 56 10 87 18
87 6 0 48 -9 93 -21z"/>
<path d="M14255 3526 c-38 -17 -105 -90 -105 -116 0 -10 11 -54 25 -97 13 -43
27 -105 31 -138 l6 -60 -30 46 c-48 74 -126 124 -239 153 -76 20 -119 20 -126
2 -8 -21 9 -31 85 -49 146 -35 234 -99 258 -187 45 -167 -143 -431 -396 -558
-79 -40 -160 -63 -248 -71 -62 -5 -71 -8 -71 -26 0 -18 8 -20 63 -23 158 -8
365 92 522 252 75 76 134 161 158 229 9 26 19 47 23 47 3 0 9 -46 12 -102 23
-362 127 -582 297 -628 96 -26 232 11 295 81 117 130 73 446 -116 834 -157
323 -314 468 -444 411z"/>
<path d="M11455 2501 c-17 -19 -11 -33 185 -418 111 -219 254 -497 316 -619
l114 -221 -143 141 c-185 184 -351 297 -515 351 -58 18 -82 11 -82 -27 0 -34
364 -878 381 -883 28 -9 49 6 49 34 -1 14 -72 193 -159 396 -87 204 -157 372
-155 373 1 2 31 -10 66 -28 216 -109 413 -296 667 -632 63 -84 111 -138 121
-138 23 0 42 24 38 48 -2 10 -164 334 -362 721 -197 386 -356 705 -352 708 10
11 324 -314 422 -437 237 -299 410 -596 545 -935 26 -66 54 -124 62 -129 18
-11 45 -2 53 18 3 8 -76 298 -176 643 -217 752 -196 674 -169 643 45 -52 166
-229 242 -355 148 -244 297 -571 387 -850 18 -55 38 -106 45 -114 16 -17 52
-6 60 18 3 9 -19 89 -49 177 -159 467 -384 879 -688 1261 -77 97 -104 124
-120 121 -49 -7 -47 -17 91 -493 73 -251 130 -459 128 -461 -2 -2 -16 19 -32
47 -46 85 -197 307 -291 429 -148 192 -600 630 -650 630 -6 0 -19 -9 -29 -19z"/>
</g>
</svg>
