<svg class="flex-shrink-0 h-6 w-6" enable-background="new 0 0 512 512" viewBox="0 0 512 512" width="24" height="24" xmlns="http://www.w3.org/2000/svg">
    <g>
        <path d="m497 437h-182v-30c0-8.284-6.716-15-15-15h-29v-62h165c8.284 0 15-6.716 15-15v-240c0-8.284-6.716-15-15-15h-200.723l-25.806-51.699c-2.539-5.087-7.736-8.301-13.421-8.301h-120.05c-8.284 0-15 6.716-15 15v300c0 8.284 6.716 15 15 15h165v62h-31c-8.284 0-15 6.716-15 15v30h-180c-8.284 0-15 6.716-15 15s6.716 15 15 15h180v30c0 8.284 6.716 15 15 15h90c8.284 0 15-6.716 15-15v-30h182c8.284 0 15-6.716 15-15s-6.716-15-15-15zm-406-407h95.772l25.807 51.699c2.539 5.087 7.735 8.301 13.421 8.301h195v210h-330zm194 452h-60v-60h60z"/>
        <path d="m207.106 141.943c-5.737-6.331-15.664-6.648-21.762-.549l-29.95 29.95c-5.858 5.858-5.858 15.355 0 21.213 5.857 5.858 15.355 5.858 21.213 0l4.394-4.393v52.836c0 8.284 6.716 15 15 15s15-6.716 15-15v-52.737l4.344 4.344c5.857 5.858 15.355 5.859 21.213 0 5.858-5.858 5.858-15.355 0-21.213z"/>
        <path d="m335.394 200.443-4.394 4.394v-52.837c0-8.284-6.716-15-15-15s-15 6.716-15 15v52.737l-4.344-4.344c-5.857-5.858-15.355-5.858-21.213 0s-5.858 15.355 0 21.213l29.451 29.451c5.818 6.421 15.756 6.556 21.762.549l29.95-29.95c5.858-5.858 5.858-15.355 0-21.213-5.857-5.858-15.355-5.858-21.212 0z"/>
    </g>
</svg>