<?xml version="1.0" standalone="no"?>
<!DOCTYPE svg PUBLIC "-//W3C//DTD SVG 20010904//EN"
 "http://www.w3.org/TR/2001/REC-SVG-20010904/DTD/svg10.dtd">
<svg version="1.0" xmlns="http://www.w3.org/2000/svg"
 width="80.000000pt" height="80.000000pt" viewBox="0 0 80.000000 80.000000"
 preserveAspectRatio="xMidYMid meet">
<metadata>
Created by potrace 1.16, written by Peter Selinger 2001-2019
</metadata>
<g transform="translate(0.000000,80.000000) scale(0.100000,-0.100000)"
fill="#ee2024" stroke="none">
<path d="M389 653 l-35 -138 -67 -3 -67 -3 0 40 c0 39 22 159 36 195 6 17 1
15 -45 -9 -79 -43 -149 -128 -175 -212 l-7 -23 175 0 176 0 6 28 c3 15 8 34
11 42 14 43 40 206 34 213 -4 4 -23 -55 -42 -130z"/>
<path d="M555 638 c-15 -57 -30 -111 -33 -120 -4 -16 7 -18 122 -18 69 0 126
3 126 6 0 3 -11 29 -25 57 -26 56 -93 135 -136 161 l-26 16 -28 -102z"/>
<path d="M22 365 c3 -30 7 -57 10 -60 11 -11 112 51 127 77 15 26 20 28 89 28
43 0 72 -4 72 -10 0 -26 -43 -91 -81 -124 -23 -19 -66 -45 -95 -57 -30 -13
-54 -28 -54 -35 0 -7 25 -35 55 -62 64 -59 139 -90 229 -97 33 -3 51 -1 38 3
-12 4 -38 20 -57 35 -34 27 -35 29 -35 100 0 40 7 103 15 142 27 126 41 115
-151 115 l-166 0 4 -55z"/>
<path d="M472 328 c-28 -118 -28 -124 7 -159 35 -34 58 -36 111 -9 49 25 85
72 109 141 16 49 21 54 49 57 28 3 32 7 32 33 l0 29 -143 0 -143 0 -22 -92z"/>
</g>
</svg>
